<svg width="389" height="478" viewBox="0 0 389 478" fill="none" xmlns="http://www.w3.org/2000/svg">
<path d="M79.5156 208H53.3594V34.6094L0.90625 53.875V30.25L75.4375 2.26562H79.5156V208ZM284.125 120.672C284.125 151.141 278.922 173.781 268.516 188.594C258.109 203.406 241.844 210.812 219.719 210.812C197.875 210.812 181.703 203.594 171.203 189.156C160.703 174.625 155.266 152.969 154.891 124.188V89.4531C154.891 59.3594 160.094 37 170.5 22.375C180.906 7.75 197.219 0.4375 219.438 0.4375C241.469 0.4375 257.688 7.51562 268.094 21.6719C278.5 35.7344 283.844 57.4844 284.125 86.9219V120.672ZM258.109 85.0938C258.109 63.0625 255.016 47.0312 248.828 37C242.641 26.875 232.844 21.8125 219.438 21.8125C206.125 21.8125 196.422 26.8281 190.328 36.8594C184.234 46.8906 181.094 62.3125 180.906 83.125V124.75C180.906 146.875 184.094 163.234 190.469 173.828C196.938 184.328 206.688 189.578 219.719 189.578C232.562 189.578 242.078 184.609 248.266 174.672C254.547 164.734 257.828 149.078 258.109 127.703V85.0938Z" fill="#BAAEDD"/>
<path d="M183.516 475H157.359V301.609L104.906 320.875V297.25L179.438 269.266H183.516V475ZM388.125 387.672C388.125 418.141 382.922 440.781 372.516 455.594C362.109 470.406 345.844 477.812 323.719 477.812C301.875 477.812 285.703 470.594 275.203 456.156C264.703 441.625 259.266 419.969 258.891 391.188V356.453C258.891 326.359 264.094 304 274.5 289.375C284.906 274.75 301.219 267.438 323.438 267.438C345.469 267.438 361.688 274.516 372.094 288.672C382.5 302.734 387.844 324.484 388.125 353.922V387.672ZM362.109 352.094C362.109 330.062 359.016 314.031 352.828 304C346.641 293.875 336.844 288.812 323.438 288.812C310.125 288.812 300.422 293.828 294.328 303.859C288.234 313.891 285.094 329.312 284.906 350.125V391.75C284.906 413.875 288.094 430.234 294.469 440.828C300.938 451.328 310.688 456.578 323.719 456.578C336.562 456.578 346.078 451.609 352.266 441.672C358.547 431.734 361.828 416.078 362.109 394.703V352.094Z" fill="#BAAEDD"/>
</svg>
